<svg xmlns="http://www.w3.org/2000/svg" viewBox="0 0 488 512">
  <path fill="#EA4335" d="M488 261.8c0-17.7-1.6-35-4.9-51.6H249v97.8h135.6c-5.9 32-23.5 59-50.1 77l81 62c47.3-43.6 72.5-107.9 72.5-185.2z"/>
  <path fill="#34A853" d="M249 492c67.5 0 124-22.5 165.3-61.2l-81-62c-22.5 15.2-51.5 24.2-84.3 24.2-64.8 0-119.7-43.7-139.3-102.5l-84.9 65.5C63.7 445.1 149.8 492 249 492z"/>
  <path fill="#4A90E2" d="M109.7 290.5c-4.9-14.8-7.7-30.6-7.7-46.5s2.8-31.7 7.7-46.5l-84.9-65.5C9 162.4 0 204.6 0 244s9 81.6 24.8 112.5l84.9-65.5z"/>
  <path fill="#FBBC05" d="M249 97.9c36.7 0 69.5 12.6 95.4 37.4l71.3-71.3C373 24.3 316.5 0 249 0 149.8 0 63.7 46.9 24.8 131.5l84.9 65.5C129.3 141.6 184.2 97.9 249 97.9z"/>
</svg>
